<?xml version="1.0" encoding="UTF-8" standalone="no"?><svg xmlns:inkscape="http://www.inkscape.org/namespaces/inkscape" xmlns:sodipodi="http://sodipodi.sourceforge.net/DTD/sodipodi-0.dtd" xmlns="http://www.w3.org/2000/svg" xmlns:svg="http://www.w3.org/2000/svg" width="193.58669mm" height="48.843384mm" viewBox="0 0 731.6657 184.60478" fill="none" version="1.1" id="svg4" sodipodi:docname="kinsta-logo.svg" inkscape:version="1.2.2 (b0a8486541, 2022-12-01)"><defs id="defs8"/><path d="m 0,180.87236 h 32.086364 v -58.07983 h 57.200271 c 7.1302,0 10.69576,3.46258 10.69576,10.38774 v 47.69209 h 32.085435 v -41.28373 c 0,-10.65772 -1.8723,-19.0451 -5.61786,-25.18348 -3.74557,-6.1161 -9.79302,-10.61319 -18.18688,-13.44578 7.67203,-3.55258 13.53855,-9.53415 17.64503,-17.98833 4.10647,-8.43191 6.13745,-18.68512 6.13745,-30.7596 V 48.74793 H 99.959205 v 6.1161 c 0,13.31126 -2.9328,23.18221 -8.82252,29.5683 -5.8888,6.3861 -15.07316,9.60096 -27.52806,9.60096 H 32.064099 V 24.508962 H 0 Z M 172.68353,38.3602 c 5.88973,0 10.69577,-1.77675 14.44132,-5.32932 3.74556,-3.55258 5.61881,-8.161929 5.61881,-13.851244 0,-5.688388 -1.82779,-10.297735 -5.48334,-13.85031 C 183.60476,1.776752 178.75325,0 172.68353,0 c -6.0697,0 -10.69483,1.776752 -14.44039,5.329326 -3.74649,3.552575 -5.61881,8.161922 -5.61881,13.85031 0,5.689315 1.87232,10.298664 5.61881,13.851244 3.74556,3.55257 8.5516,5.32932 14.44039,5.32932 z m 516.20146,115.34966 h -50.79188 c -7.1302,0 -10.69578,-3.46257 -10.69578,-10.38866 V 86.32135 c 0,-6.92516 3.56557,-10.38866 10.69578,-10.38866 h 50.79188 c 7.13019,0 10.69575,3.4635 10.69575,10.38866 v 56.99985 c 0,6.92609 -3.56556,10.38866 -10.69575,10.38866 z m -32.35729,30.89506 c 9.793,0 18.25463,-1.55222 25.40707,-4.65481 7.1302,-3.10259 13.6295,-8.02739 19.51828,-14.79574 v 15.71799 h 30.21313 V 48.74793 h -30.21313 v 15.71798 c -5.88878,-6.74608 -12.38807,-11.66995 -19.51828,-14.79574 -7.13019,-3.10259 -15.5918,-4.6548 -25.40707,-4.6548 -20.15013,0 -35.83192,6.34156 -47.04634,19.0451 -11.23667,12.70447 -16.83321,29.61376 -16.83321,50.75014 0,21.13545 5.6188,38.04474 16.83321,50.74921 11.23668,12.70354 26.91941,19.0451 47.04634,19.0451 z m -96.23591,-3.73256 h 27.52806 v -28.24154 h -28.88172 c -7.13113,0 -10.69575,-3.4635 -10.69575,-10.38866 V 76.96719 h 39.55521 V 48.72566 H 548.24237 V 20.214141 h -29.4013 V 37.52796 c 0,7.46514 -3.56463,11.1977 -10.69574,11.1977 H 490.22935 V 76.96719 H 516.156 v 60.73335 c 0,13.49125 3.88102,24.05898 11.62079,31.70411 7.76204,7.64513 18.57006,11.44451 32.46956,11.44451 m -191.14133,0 h 63.08997 c 36.16965,0 54.26653,-12.88354 54.26653,-38.62926 0,-11.71544 -3.52008,-20.64187 -10.5603,-26.78024 -7.04021,-6.11611 -18.66005,-10.3432 -34.88369,-12.65901 L 414.27904,98.7781 c -7.67204,-1.23678 -12.659,-2.54127 -14.95997,-3.86711 -2.32416,-1.32676 -3.47557,-3.68803 -3.47557,-7.06062 v -2.4058 c 0,-3.01352 0.81276,-5.19479 2.41415,-6.52063 1.60233,-1.32676 4.35513,-2.00128 8.28161,-2.00128 H 477.639 V 48.68113 h -58.80257 c -18.18688,0 -31.90544,3.32712 -41.17981,9.9832 -9.27344,6.65518 -13.89948,16.57158 -13.89948,29.70283 0,11.37771 3.6101,20.07962 10.83122,26.10573 7.22019,6.04837 19.02191,10.29866 35.42554,12.79446 l 25.92666,3.73257 c 5.52787,0.71905 9.52208,1.41583 12.02624,2.13581 2.48188,0.71905 4.1974,1.68676 5.07696,2.9226 0.88049,1.23676 1.33141,3.01352 1.33141,5.32932 v 2.65353 c 0,3.01259 -0.8573,5.19386 -2.54962,6.52063 -1.69232,1.32676 -4.39966,2.00129 -8.14615,2.00129 h -74.57438 v 28.24152 z m -153.70708,0 H 247.4843 V 86.27589 c 0,-6.92516 3.56464,-10.38773 10.69484,-10.38773 h 46.77634 c 7.1302,0 10.69484,3.46257 10.69484,10.38773 v 94.57327 h 32.08637 V 90.81843 c 0,-13.85124 -4.58059,-24.95895 -13.76403,-33.30086 -9.18344,-8.34192 -22.31563,-12.52447 -39.41977,-12.52447 -10.33391,0 -19.74373,1.68675 -28.20534,5.05933 -8.46159,3.37257 -15.36635,8.16192 -20.7133,14.3903 V 48.72566 H 215.4202 v 132.1235 z m -58.80258,0 h 32.08637 V 48.74793 h -32.08637 v 132.12443 z" fill="#261e1e" id="path2" style="stroke-width:9.27807"/></svg>