<?xml version="1.0" encoding="UTF-8"?> <svg xmlns="http://www.w3.org/2000/svg" xmlns:xlink="http://www.w3.org/1999/xlink" id="Layer_1" x="0px" y="0px" viewBox="0 0 485.34 120.8" style="enable-background:new 0 0 485.34 120.8;" xml:space="preserve"> <style type="text/css"> .st0{fill:#B2B2B2;} .st1{display:none;} .st2{display:inline;fill:none;} .st3{fill:#E12B2C;} .st4{fill:url(#SVGID_1_);} .st5{clip-path:url(#SVGID_9_);fill:url(#SVGID_10_);} .st6{fill:url(#SVGID_11_);} .st7{clip-path:url(#SVGID_13_);fill:url(#SVGID_14_);} .st8{fill:url(#SVGID_15_);} .st9{clip-path:url(#SVGID_17_);fill:url(#SVGID_18_);} .st10{fill:url(#SVGID_19_);} .st11{clip-path:url(#SVGID_21_);fill:url(#SVGID_22_);} .st12{fill:url(#SVGID_23_);} .st13{clip-path:url(#SVGID_25_);} .st14{fill:url(#SVGID_26_);} .st15{clip-path:url(#SVGID_28_);fill:url(#SVGID_29_);} </style> <path class="st0" d="M9.59,120.41L3.93,96.55H9.7l1.81,9.81c0.53,2.87,1.03,5.95,1.42,8.35h0.07c0.39-2.58,0.96-5.45,1.56-8.39 l2.02-9.77h5.73l1.91,10.05c0.53,2.8,0.92,5.34,1.27,8h0.07c0.35-2.66,0.88-5.45,1.38-8.28l1.95-9.77h5.49l-6.16,23.86h-5.84 l-2.02-10.27c-0.46-2.41-0.85-4.64-1.13-7.36h-0.07c-0.42,2.69-0.81,4.96-1.38,7.36l-2.27,10.27H9.59z"></path> <path class="st0" d="M65.45,108.23c0,7.82-4.74,12.57-11.72,12.57c-7.08,0-11.22-5.35-11.22-12.14c0-7.15,4.57-12.5,11.61-12.5 C61.45,96.16,65.45,101.65,65.45,108.23z M48.21,108.55c0,4.67,2.19,7.97,5.81,7.97c3.65,0,5.73-3.47,5.73-8.11 c0-4.28-2.05-7.96-5.77-7.96C50.33,100.45,48.21,103.91,48.21,108.55z"></path> <path class="st0" d="M76.72,96.87c1.73-0.28,4.32-0.5,7.19-0.5c3.54,0,6.02,0.53,7.72,1.88c1.42,1.13,2.2,2.8,2.2,4.99 c0,3.04-2.16,5.13-4.21,5.88v0.11c1.66,0.67,2.58,2.27,3.19,4.46c0.74,2.69,1.49,5.8,1.95,6.73h-5.52 c-0.39-0.71-0.96-2.62-1.66-5.56c-0.64-2.97-1.66-3.79-3.86-3.82h-1.63v9.38h-5.35V96.87z M82.06,107.14h2.12 c2.69,0,4.28-1.34,4.28-3.43c0-2.19-1.49-3.29-3.96-3.33c-1.31,0-2.05,0.11-2.44,0.18V107.14z"></path> <path class="st0" d="M105.43,96.87c1.73-0.28,4.32-0.5,7.19-0.5c3.54,0,6.02,0.53,7.72,1.88c1.42,1.13,2.2,2.8,2.2,4.99 c0,3.04-2.16,5.13-4.21,5.88v0.11c1.66,0.67,2.58,2.27,3.19,4.46c0.74,2.69,1.49,5.8,1.95,6.73h-5.52 c-0.39-0.71-0.96-2.62-1.66-5.56c-0.64-2.97-1.66-3.79-3.86-3.82h-1.63v9.38h-5.35V96.87z M110.78,107.14h2.12 c2.69,0,4.28-1.34,4.28-3.43c0-2.19-1.49-3.29-3.96-3.33c-1.31,0-2.05,0.11-2.44,0.18V107.14z"></path> <path class="st0" d="M138,120.41v-9.77l-7.54-14.09h6.16l2.44,5.74c0.74,1.73,1.24,3.01,1.84,4.57h0.07 c0.53-1.49,1.1-2.87,1.81-4.57l2.41-5.74h6.05l-7.86,13.91v9.95H138z"></path> <path class="st0" d="M167.36,109.3v3.61h-9.27v-3.61H167.36z"></path> <path class="st0" d="M176.48,96.55h14.58v4.43h-9.17v5.45h8.57v4.39h-8.57v9.59h-5.42V96.55z"></path> <path class="st0" d="M202.86,96.87c1.74-0.28,4.32-0.5,7.19-0.5c3.54,0,6.02,0.53,7.72,1.88c1.42,1.13,2.19,2.8,2.19,4.99 c0,3.04-2.16,5.13-4.21,5.88v0.11c1.66,0.67,2.58,2.27,3.19,4.46c0.74,2.69,1.49,5.8,1.95,6.73h-5.52 c-0.39-0.71-0.96-2.62-1.66-5.56c-0.64-2.97-1.66-3.79-3.86-3.82h-1.63v9.38h-5.35V96.87z M208.21,107.14h2.12 c2.69,0,4.28-1.34,4.28-3.43c0-2.19-1.49-3.29-3.96-3.33c-1.31,0-2.05,0.11-2.44,0.18V107.14z"></path> <path class="st0" d="M245.78,110.32H237v5.66h9.81v4.42h-15.22V96.55h14.73v4.43H237v4.96h8.78V110.32z"></path> <path class="st0" d="M272.41,110.32h-8.78v5.66h9.81v4.42h-15.22V96.55h14.73v4.43h-9.31v4.96h8.78V110.32z"></path> <path class="st0" d="M304.13,96.55v9.17h8.89v-9.17h5.38v23.86h-5.38v-9.98h-8.89v9.98h-5.42V96.55H304.13z"></path> <path class="st0" d="M351.74,108.23c0,7.82-4.74,12.57-11.72,12.57c-7.08,0-11.22-5.35-11.22-12.14c0-7.15,4.57-12.5,11.61-12.5 C347.74,96.16,351.74,101.65,351.74,108.23z M334.5,108.55c0,4.67,2.2,7.97,5.81,7.97c3.65,0,5.73-3.47,5.73-8.11 c0-4.28-2.05-7.96-5.77-7.96C336.63,100.45,334.5,103.91,334.5,108.55z"></path> <path class="st0" d="M362.26,114.85c1.45,0.74,3.68,1.49,5.98,1.49c2.48,0,3.79-1.03,3.79-2.58c0-1.49-1.13-2.34-4-3.36 c-3.96-1.38-6.55-3.58-6.55-7.04c0-4.07,3.4-7.19,9.03-7.19c2.69,0,4.67,0.57,6.09,1.2l-1.2,4.35c-0.96-0.46-2.65-1.13-4.99-1.13 c-2.34,0-3.47,1.06-3.47,2.3c0,1.52,1.35,2.2,4.43,3.36c4.21,1.56,6.2,3.75,6.2,7.12c0,4-3.08,7.43-9.63,7.43 c-2.73,0-5.42-0.74-6.76-1.49L362.26,114.85z"></path> <path class="st0" d="M392.6,101.08h-6.41v-4.53h18.34v4.53h-6.51v19.33h-5.42V101.08z"></path> <path class="st0" d="M420.61,96.55v23.86h-5.42V96.55H420.61z"></path> <path class="st0" d="M434.07,120.41V96.55h6.3l4.96,8.74c1.42,2.51,2.83,5.49,3.89,8.18h0.11c-0.35-3.15-0.46-6.37-0.46-9.98v-6.94 h4.96v23.86h-5.66l-5.1-9.2c-1.42-2.55-2.97-5.63-4.14-8.43l-0.11,0.04c0.14,3.15,0.21,6.51,0.21,10.41v7.19H434.07z"></path> <path class="st0" d="M485.28,119.31c-1.66,0.57-4.81,1.35-7.96,1.35c-4.35,0-7.5-1.1-9.7-3.22c-2.2-2.05-3.4-5.17-3.36-8.67 c0.04-7.93,5.81-12.46,13.63-12.46c3.08,0,5.45,0.6,6.62,1.17l-1.13,4.32c-1.31-0.57-2.94-1.03-5.56-1.03 c-4.5,0-7.89,2.55-7.89,7.72c0,4.92,3.08,7.82,7.51,7.82c1.24,0,2.23-0.14,2.65-0.35v-4.99h-3.68v-4.21h8.88V119.31z"></path> <g> <g class="st1"> <image style="display:inline;overflow:visible;enable-background:new ;" width="49" height="49" xlink:href="DCE11CA32B94F1C4.jpg" transform="matrix(1.5396 0 0 -1.5396 0 75.4404)"> </image> <rect x="3.94" y="2.47" class="st2" width="63.6" height="69.1"></rect> </g> <path class="st3" d="M26.04,71.47l-22.1-69h17.1l8.4,29.2c2.4,8.2,4.5,16.1,6.1,24.7h0.4c1.7-8.3,3.9-16.5,6.3-24.4l8.7-29.5h16.6 l-23.2,69L26.04,71.47L26.04,71.47z"></path> </g> <g> <g class="st1"> <image style="display:inline;overflow:visible;enable-background:new ;" width="36" height="49" xlink:href="DCE11CA32B94F1C5.jpg" transform="matrix(1.5717 0 0 -1.5396 68.4951 75.4404)"> </image> <rect x="72.94" y="2.47" class="st2" width="44.1" height="69.1"></rect> </g> <polygon class="st3" points="114.04,42.27 88.54,42.27 88.54,58.67 116.94,58.67 116.94,71.47 72.94,71.47 72.94,2.47 115.54,2.47 115.54,15.27 88.54,15.27 88.54,29.57 114.04,29.57 "></polygon> </g> <g> <g class="st1"> <image style="display:inline;overflow:visible;enable-background:new ;" width="49" height="49" xlink:href="DCE11CA32B94F1C3.jpg" transform="matrix(1.5396 0 0 -1.5396 117.1714 75.4404)"> </image> <rect x="120.44" y="2.47" class="st2" width="63.6" height="69.1"></rect> </g> <path class="st3" d="M142.54,71.47l-22.1-69h17.1l8.4,29.2c2.4,8.2,4.5,16.1,6.1,24.7h0.3c1.7-8.3,3.9-16.5,6.3-24.4l8.9-29.5h16.6 l-23.3,69L142.54,71.47L142.54,71.47z"></path> </g> <g> <g class="st1"> <image style="display:inline;overflow:visible;enable-background:new ;" width="17" height="49" xlink:href="DCE11CA32B94F1CC.jpg" transform="matrix(1.4792 0 0 -1.5396 187.2095 75.4404)"> </image> <rect x="191.44" y="2.47" class="st2" width="15.7" height="69.1"></rect> </g> <polygon class="st3" points="207.14,2.47 207.14,71.47 191.44,71.47 191.44,2.47 "></polygon> </g> <g> <g class="st1"> <image style="display:inline;overflow:visible;enable-background:new ;" width="45" height="49" xlink:href="DCE11CA32B94F1CF.jpg" transform="matrix(1.5368 0 0 -1.5396 212.0679 75.4912)"> </image> <rect x="216.54" y="1.97" class="st2" width="61.1" height="70.3"></rect> </g> <path class="st3" d="M216.54,3.37c5.7-0.9,13.2-1.4,21.1-1.4c13.1,0,21.6,2.4,28.3,7.4c7.2,5.3,11.7,13.8,11.7,26 c0,13.2-4.8,22.3-11.5,28c-7.3,6-18.3,8.9-31.9,8.9c-8.1,0-13.8-0.5-17.7-1L216.54,3.37L216.54,3.37z M232.24,59.77 c1.3,0.3,3.5,0.3,5.4,0.3c14.1,0.1,23.4-7.7,23.4-24.2c0.1-14.3-8.3-21.9-21.7-21.9c-3.5,0-5.7,0.3-7.1,0.6L232.24,59.77 L232.24,59.77z"></path> </g> <g> <g class="st1"> <image style="display:inline;overflow:visible;enable-background:new ;" width="49" height="49" xlink:href="DCE11CA32B94F1CD.jpg" transform="matrix(1.5396 0 0 -1.5396 273.894 75.4404)"> </image> <rect x="277.04" y="2.47" class="st2" width="63" height="69.1"></rect> </g> <path class="st3" d="M298.14,53.77l-4.9,17.7h-16.2l21.1-69h20.5l21.5,69h-16.8l-5.4-17.7H298.14L298.14,53.77z M315.74,42.07 l-4.3-14.6c-1.2-4.1-2.5-9.2-3.5-13.3h-0.2c-1,4.1-2.1,9.3-3.2,13.3l-4.1,14.7h15.3V42.07z"></path> </g> <g> <g> <g> <linearGradient id="SVGID_1_" gradientUnits="userSpaceOnUse" x1="424.1422" y1="-197.7654" x2="444.3922" y2="-175.7654" gradientTransform="matrix(1 0 0 1 0 227.47)"> <stop offset="0" style="stop-color:#5EB3E5"></stop> <stop offset="1" style="stop-color:#1276BC"></stop> </linearGradient> <path id="SVGID_8_" class="st4" d="M444.94,23.07l-17.7,39.2c5.4,6.3,13.1,9.7,23.6,9.7c9.5,0,16.6-4.3,16.6-4.3L444.94,23.07 L444.94,23.07z"></path> </g> <g> <g> <defs> <path id="SVGID_5_" d="M444.94,23.07l-17.7,39.2c5.4,6.3,13.1,9.7,23.6,9.7c9.5,0,16.6-4.3,16.6-4.3L444.94,23.07L444.94,23.07 z"></path> </defs> <clipPath id="SVGID_9_"> <use xlink:href="#SVGID_5_" style="overflow:visible;"></use> </clipPath> <linearGradient id="SVGID_10_" gradientUnits="userSpaceOnUse" x1="469.9375" y1="-138.6008" x2="357.4375" y2="-251.1008" gradientTransform="matrix(1 0 0 1 0 227.47)"> <stop offset="0.2803" style="stop-color:#1276BC"></stop> <stop offset="0.5" style="stop-color:#5EB3E5"></stop> <stop offset="0.7246" style="stop-color:#1276BC"></stop> </linearGradient> <rect x="342.44" y="-8.63" class="st5" width="142.5" height="82.5"></rect> </g> </g> </g> <g> <g> <linearGradient id="SVGID_11_" gradientUnits="userSpaceOnUse" x1="451.6527" y1="-223.0874" x2="471.9027" y2="-201.0874" gradientTransform="matrix(1 0 0 1 0 227.47)"> <stop offset="0" style="stop-color:#5EB3E5"></stop> <stop offset="1" style="stop-color:#1276BC"></stop> </linearGradient> <path id="SVGID_7_" class="st6" d="M485.34,36.77c0-18.4-13.9-33.5-31.7-35l27.2,52.4C483.74,49.07,485.34,43.17,485.34,36.77 L485.34,36.77z"></path> </g> <g> <g> <defs> <path id="SVGID_12_" d="M485.34,36.77c0-18.4-13.9-33.5-31.7-35l27.2,52.4C483.74,49.07,485.34,43.17,485.34,36.77 L485.34,36.77z"></path> </defs> <clipPath id="SVGID_13_"> <use xlink:href="#SVGID_12_" style="overflow:visible;"></use> </clipPath> <linearGradient id="SVGID_14_" gradientUnits="userSpaceOnUse" x1="470.2375" y1="-138.6008" x2="357.7375" y2="-251.1008" gradientTransform="matrix(1 0 0 1 0 227.47)"> <stop offset="0.2803" style="stop-color:#1276BC"></stop> <stop offset="0.5" style="stop-color:#5EB3E5"></stop> <stop offset="0.7246" style="stop-color:#1276BC"></stop> </linearGradient> <rect x="342.74" y="-8.63" class="st7" width="142.5" height="82.5"></rect> </g> </g> </g> <g> <g> <linearGradient id="SVGID_15_" gradientUnits="userSpaceOnUse" x1="413.3192" y1="-187.8033" x2="433.5692" y2="-165.8033" gradientTransform="matrix(1 0 0 1 0 227.47)"> <stop offset="0" style="stop-color:#5EB3E5"></stop> <stop offset="1" style="stop-color:#1276BC"></stop> </linearGradient> <path id="SVGID_6_" class="st8" d="M396.54,50.67l17.7-39.2c-5.3-6.3-13.1-9.7-23.6-9.7c-9.5,0-16.6,4.3-16.6,4.3L396.54,50.67 L396.54,50.67z"></path> </g> <g> <g> <defs> <path id="SVGID_16_" d="M396.54,50.67l17.7-39.2c-5.3-6.3-13.1-9.7-23.6-9.7c-9.5,0-16.6,4.3-16.6,4.3L396.54,50.67 L396.54,50.67z"></path> </defs> <clipPath id="SVGID_17_"> <use xlink:href="#SVGID_16_" style="overflow:visible;"></use> </clipPath> <linearGradient id="SVGID_18_" gradientUnits="userSpaceOnUse" x1="469.9375" y1="-138.6008" x2="357.4375" y2="-251.1008" gradientTransform="matrix(1 0 0 1 0 227.47)"> <stop offset="0.2803" style="stop-color:#1276BC"></stop> <stop offset="0.5" style="stop-color:#5EB3E5"></stop> <stop offset="0.7246" style="stop-color:#1276BC"></stop> </linearGradient> <rect x="342.44" y="-8.63" class="st9" width="142.5" height="82.5"></rect> </g> </g> </g> <g> <g> <linearGradient id="SVGID_19_" gradientUnits="userSpaceOnUse" x1="418.6771" y1="-192.735" x2="438.9271" y2="-170.735" gradientTransform="matrix(1 0 0 1 0 227.47)"> <stop offset="0" style="stop-color:#5EB3E5"></stop> <stop offset="1" style="stop-color:#1276BC"></stop> </linearGradient> <path id="SVGID_4_" class="st10" d="M446.34,1.77c-13.8,0.9-25.4,10.1-30.1,22.7c-0.2,0.3-0.3,0.5-0.3,0.6l-20.9,47 c13.9-0.9,25.5-10.2,30.1-22.9c0.1-0.2,0.2-0.3,0.3-0.5L446.34,1.77L446.34,1.77z"></path> </g> <g> <g> <defs> <path id="SVGID_20_" d="M446.34,1.77c-13.8,0.9-25.4,10.1-30.1,22.7c-0.2,0.3-0.3,0.5-0.3,0.6l-20.9,47 c13.9-0.9,25.5-10.2,30.1-22.9c0.1-0.2,0.2-0.3,0.3-0.5L446.34,1.77L446.34,1.77z"></path> </defs> <clipPath id="SVGID_21_"> <use xlink:href="#SVGID_20_" style="overflow:visible;"></use> </clipPath> <linearGradient id="SVGID_22_" gradientUnits="userSpaceOnUse" x1="469.9375" y1="-138.6008" x2="357.4375" y2="-251.1008" gradientTransform="matrix(1 0 0 1 0 227.47)"> <stop offset="0.2803" style="stop-color:#1276BC"></stop> <stop offset="0.5" style="stop-color:#5EB3E5"></stop> <stop offset="0.7246" style="stop-color:#1276BC"></stop> </linearGradient> <rect x="342.44" y="-8.63" class="st11" width="142.5" height="82.5"></rect> </g> </g> </g> <g> <g> <linearGradient id="SVGID_23_" gradientUnits="userSpaceOnUse" x1="385.8157" y1="-162.4875" x2="406.0657" y2="-140.4875" gradientTransform="matrix(1 0 0 1 0 227.47)"> <stop offset="0" style="stop-color:#5EB3E5"></stop> <stop offset="1" style="stop-color:#1276BC"></stop> </linearGradient> <path id="SVGID_3_" class="st12" d="M356.14,36.97c0,18.4,14,33.5,31.7,35l-27.2-52.4C357.74,24.67,356.14,30.67,356.14,36.97 L356.14,36.97z"></path> </g> <g> <g> <defs> <path id="SVGID_24_" d="M356.14,36.97c0,18.4,14,33.5,31.7,35l-27.2-52.4C357.74,24.67,356.14,30.67,356.14,36.97L356.14,36.97 z"></path> </defs> <clipPath id="SVGID_25_"> <use xlink:href="#SVGID_24_" style="overflow:visible;"></use> </clipPath> <g class="st13"> <g> <linearGradient id="SVGID_26_" gradientUnits="userSpaceOnUse" x1="387.9036" y1="-164.4093" x2="408.1536" y2="-142.4093" gradientTransform="matrix(1 0 0 1 0 227.47)"> <stop offset="0" style="stop-color:#5EB3E5"></stop> <stop offset="1" style="stop-color:#1276BC"></stop> </linearGradient> <rect id="SVGID_2_" x="356.14" y="19.57" class="st14" width="31.7" height="52.4"></rect> </g> </g> </g> </g> <g> <g> <defs> <path id="SVGID_27_" d="M356.14,36.97c0,18.4,14,33.5,31.7,35l-27.2-52.4C357.74,24.67,356.14,30.67,356.14,36.97L356.14,36.97 z"></path> </defs> <clipPath id="SVGID_28_"> <use xlink:href="#SVGID_27_" style="overflow:visible;"></use> </clipPath> <linearGradient id="SVGID_29_" gradientUnits="userSpaceOnUse" x1="469.9375" y1="-138.6008" x2="357.4375" y2="-251.1008" gradientTransform="matrix(1 0 0 1 0 227.47)"> <stop offset="0.2803" style="stop-color:#1276BC"></stop> <stop offset="0.5" style="stop-color:#5EB3E5"></stop> <stop offset="0.7246" style="stop-color:#1276BC"></stop> </linearGradient> <rect x="342.44" y="-8.63" class="st15" width="142.5" height="82.5"></rect> </g> </g> </g> </g> </svg> 